<svg width="18" height="12" viewBox="0 0 18 12" fill="none" xmlns="http://www.w3.org/2000/svg">
    <path d="M17.0572 2.15156C16.962 1.81193 16.7765 1.50444 16.5205 1.26178C16.2573 1.01166 15.9347 0.83275 15.5831 0.741925C14.2673 0.39512 8.99591 0.39512 8.99591 0.39512C6.79831 0.370117 4.60124 0.480087 2.41712 0.724409C2.06555 0.821944 1.74352 1.00486 1.4797 1.25688C1.22047 1.5063 1.0327 1.81387 0.934618 2.15086C0.698996 3.4202 0.584515 4.70905 0.592718 6.00005C0.58431 7.28988 0.698511 8.57832 0.934618 9.84923C1.0306 10.1848 1.21767 10.491 1.4776 10.7383C1.73752 10.9856 2.06121 11.1643 2.41712 11.2589C3.75039 11.605 8.99591 11.605 8.99591 11.605C11.1963 11.63 13.3962 11.52 15.5831 11.2757C15.9347 11.1849 16.2573 11.0059 16.5205 10.7558C16.7764 10.5132 16.9617 10.2057 17.0565 9.86605C17.2983 8.5972 17.4158 7.30781 17.4075 6.01616C17.4257 4.71905 17.3083 3.42358 17.0572 2.15086V2.15156ZM7.32003 8.39896V3.60184L11.7059 6.00075L7.32003 8.39896Z" fill="white"></path>
</svg>