<svg width="17" height="15" viewBox="0 0 17 15" fill="none" xmlns="http://www.w3.org/2000/svg">
    <path d="M15.1463 1.06741C15.1463 1.06741 16.6806 0.46909 16.5522 1.92203C16.51 2.52034 16.1265 4.61464 15.8279 6.87955L14.8051 13.5894C14.8051 13.5894 14.7198 14.5723 13.9524 14.7434C13.1855 14.914 12.0347 14.145 11.8214 13.974C11.6508 13.8457 8.62485 11.9224 7.55933 10.9825C7.26077 10.7258 6.91955 10.2131 7.60198 9.61482L12.0769 5.34092C12.5883 4.8283 13.0998 3.63167 10.9687 5.08461L5.00139 9.14446C5.00139 9.14446 4.31935 9.57217 3.04096 9.18751L0.270153 8.33249C0.270153 8.33249 -0.75271 7.69153 0.994845 7.05056C5.2573 5.04196 10.5 2.9907 15.1455 1.06741H15.1463Z" fill="white"></path>
</svg>