<svg width="20" height="12" viewBox="0 0 20 12" fill="none" xmlns="http://www.w3.org/2000/svg">
    <path fill-rule="evenodd" clip-rule="evenodd" d="M19.5417 0.956672C19.68 0.501672 19.5417 0.166672 18.8792 0.166672H16.6917C16.135 0.166672 15.8783 0.455838 15.7392 0.775005C15.7392 0.775005 14.6267 3.43834 13.0508 5.16834C12.5408 5.67001 12.3092 5.82917 12.0308 5.82917C11.8917 5.82917 11.6825 5.67001 11.6825 5.21417V0.956672C11.6825 0.410005 11.5292 0.166672 11.0658 0.166672H7.62583C7.27833 0.166672 7.06917 0.420005 7.06917 0.660838C7.06917 1.17834 7.8575 1.29834 7.93833 2.75501V5.92001C7.93833 6.61417 7.81083 6.74001 7.5325 6.74001C6.79083 6.74001 4.98667 4.06417 3.91583 1.00251C3.70833 0.406672 3.49833 0.166672 2.93917 0.166672H0.75C0.125 0.166672 0 0.455838 0 0.775005C0 1.34334 0.741667 4.16667 3.45417 7.90084C5.2625 10.4508 7.80833 11.8333 10.1275 11.8333C11.5183 11.8333 11.69 11.5267 11.69 10.9975V9.07001C11.69 8.45584 11.8217 8.33334 12.2625 8.33334C12.5875 8.33334 13.1433 8.49334 14.4417 9.72251C15.925 11.18 16.1692 11.8333 17.0042 11.8333H19.1917C19.8167 11.8333 20.13 11.5267 19.95 10.92C19.7517 10.3167 19.0433 9.44084 18.1042 8.40167C17.5942 7.81001 16.8292 7.17251 16.5967 6.85334C16.2725 6.44417 16.365 6.26167 16.5967 5.89751C16.5967 5.89751 19.2633 2.20917 19.5408 0.956672H19.5417Z" fill="white"></path>
</svg>